<?xml version="1.0" encoding="UTF-8"?>
<svg version="1.1" xmlns="http://www.w3.org/2000/svg" width="342" height="371">
<path d="M0 0 C1.26445953 -0.00249756 2.52891907 -0.00499512 3.83169556 -0.00756836 C15.61686968 -0.02667238 27.39512846 -0.04238227 39.16796875 0.5546875 C39.90097198 0.59133514 40.63397522 0.62798279 41.38919067 0.66574097 C74.45632364 2.62190155 104.72154798 19.50774434 126.94482422 43.51269531 C141.93352861 60.4101695 151.00308252 81.304105 155.6875 103.1875 C155.94539307 104.35526978 155.94539307 104.35526978 156.20849609 105.54663086 C157.68835687 113.03175741 157.375 119.10515078 157.375 127.125 C136.915 127.455 116.455 127.785 95.375 128.125 C99.850625 137.05304688 104.32625 145.98109375 108.9375 155.1796875 C111.76346052 160.82139497 114.58921912 166.46320207 117.4140625 172.10546875 C121.90228134 181.07002282 126.39134244 190.03414826 130.88574219 198.99560547 C134.15846759 205.52115562 137.42840189 212.04809526 140.69495678 218.57673657 C142.42553262 222.03527524 144.15752202 225.49308979 145.89285278 228.94924545 C147.52471981 232.19944811 149.15286052 235.45148937 150.7781105 238.70500565 C151.66285118 240.47367072 152.55157814 242.24033995 153.44039917 244.00695801 C153.96207672 245.05306244 154.48375427 246.09916687 155.02124023 247.17697144 C155.47844955 248.08954649 155.93565887 249.00212154 156.40672302 249.94235039 C157.375 252.125 157.375 252.125 157.375 254.125 C136.255 254.125 115.135 254.125 93.375 254.125 C83.145 233.665 72.915 213.205 62.375 192.125 C29.21 191.63 29.21 191.63 -4.625 191.125 C-4.625 211.915 -4.625 232.705 -4.625 254.125 C-25.415 254.125 -46.205 254.125 -67.625 254.125 C-67.810625 244.864375 -67.99625 235.60375 -68.1875 226.0625 C-68.24881104 223.29480225 -68.31012207 220.52710449 -68.37329102 217.67553711 C-68.90707653 187.44132669 -68.10601829 157.42915218 -67.625 127.125 C-14.495 127.125 38.635 127.125 93.375 127.125 C90.86244296 108.28082217 85.78058019 91.00290165 70.4609375 78.8046875 C52.17865255 65.28758449 34.32568871 64.82315481 12.453125 64.7109375 C10.13856331 64.69220233 7.82400828 64.67262721 5.50946045 64.6522522 C-0.54679415 64.60117314 -6.60307084 64.56141845 -12.65942383 64.52410889 C-19.94512336 64.4768349 -27.23071538 64.41534189 -34.5163269 64.35626221 C-45.55250729 64.26834574 -56.58867017 64.19836958 -67.625 64.125 C-67.625 43.335 -67.625 22.545 -67.625 1.125 C-45.07314156 0.36375583 -22.5639435 0.01550338 0 0 Z " fill="#020202" transform="translate(125.625,59.875)"/>
</svg>
